<?xml version="1.0" encoding="UTF-8"?>
<svg id="Calque_2" data-name="Calque 2" xmlns="http://www.w3.org/2000/svg" viewBox="0 0 98.61 103.05">
  <defs>
    <style>
      .cls-1 {
        fill: #1d1e1d;
        stroke-width: 0px;
      }
    </style>
  </defs>
  <g id="Calque_1-2" data-name="Calque 1">
    <g>
      <g>
        <path class="cls-1" d="M0,11.79v-7.65h22.32v7.65h-7.11v19.35H7.11V11.79H0Z"/>
        <path class="cls-1" d="M72.4,4.14l4.37,8.87h.13l3.74-8.87h8.55v.09l-7.25,14,7.38,12.83v.09h-9.05l-4.28-9.18h-.05l-4.14,9.18h-8.51v-.09l7.43-14-7.34-12.83v-.09h9Z"/>
        <path class="cls-1" d="M98.61,31.14h-8.1V4.14h8.1v27Z"/>
        <path class="cls-1" d="M54.84,4.14h-6.42V0h-11.21v4.14h-6.42l-5.52,11.19h-2.95s0,2.76,0,2.76h1.59s-.4.81-.4.81v12.24h8.1v-4.14h22.41s0,4.14,0,4.14h8.1s0-12.24,0-12.24l-.4-.81h1.59v-2.76h-2.94s-5.53-11.19-5.53-11.19ZM31.74,20.52l4.88-9.9h12.38l4.88,9.9h-22.15Z"/>
      </g>
      <path class="cls-1" d="M46.28,90.79c-1.43,3.98-2.34,8.07-2.53,12.2v.06H0v-30.02S0,43.39,0,43.39h39.02v12.38H13.68v35.02h32.6Z"/>
      <path class="cls-1" d="M98.61,43.39v12.25c-12.06,12.45-26.52,29.93-27.38,47.41h-15.1c.19-4.13,1.13-8.24,2.6-12.26,5.15-14.03,16.81-26.51,26.33-35.15h-33.66v-12.25h47.21Z"/>
    </g>
  </g>
</svg>