<?xml version="1.0" encoding="UTF-8"?>
<svg id="Calque_2" data-name="Calque 2" xmlns="http://www.w3.org/2000/svg" viewBox="0 0 104.14 143.26">
  <defs>
    <style>
      .cls-1 {
        fill: #fccd0a;
        stroke-width: 0px;
      }
    </style>
  </defs>
  <g id="Calque_1-2" data-name="Calque 1">
    <g>
      <path class="cls-1" d="M82.49,10.28h-15.34V0h-30.16v10.28h-15.95l-13.72,27.8H0s0,6.86,0,6.86h3.94s-.99,2.01-.99,2.01v30.41h14.74v-13.19h68.76s0,13.18,0,13.18h14.74s0-30.41,0-30.41l-.99-2.01h3.94v-6.86l-7.31.03-14.34-27.83ZM18.02,50.97l12.13-27.49h43.84l12.13,27.49H18.02Z"/>
      <g>
        <path class="cls-1" d="M49.06,130.99c-1.43,3.98-2.34,8.08-2.53,12.21v.06H2.74v-30.04s0-29.66,0-29.66h39.05v12.39h-25.36v35.05h32.62Z"/>
        <path class="cls-1" d="M101.19,83.55v12.26c-12.07,12.46-26.54,29.95-27.4,47.44h-15.11c.19-4.13,1.13-8.25,2.6-12.27,5.15-14.04,16.82-26.53,26.34-35.18h-33.68v-12.26h47.24Z"/>
      </g>
    </g>
  </g>
</svg>