<?xml version="1.0" encoding="UTF-8"?>
<svg id="Calque_2" data-name="Calque 2" xmlns="http://www.w3.org/2000/svg" viewBox="0 0 147.91 147.91">
  <defs>
    <style>
      .cls-1 {
        fill: #1d1e1d;
      }

      .cls-1, .cls-2 {
        stroke-width: 0px;
      }

      .cls-2 {
        fill: #fccd0b;
      }
    </style>
  </defs>
  <g id="Calque_1-2" data-name="Calque 1">
    <g>
      <rect class="cls-2" y="0" width="147.91" height="147.91" rx="9.92" ry="9.92"/>
      <g>
        <g>
          <path class="cls-1" d="M24.65,34.22v-7.65h22.32v7.65h-7.11v19.35h-8.1v-19.35h-7.11Z"/>
          <path class="cls-1" d="M97.05,26.57l4.37,8.87h.13l3.74-8.87h8.55v.09l-7.25,14,7.38,12.83v.09h-9.05l-4.28-9.18h-.05l-4.14,9.18h-8.51v-.09l7.43-14-7.34-12.83v-.09h9Z"/>
          <path class="cls-1" d="M123.26,53.57h-8.1v-27h8.1v27Z"/>
          <path class="cls-1" d="M79.49,26.57h-6.42v-4.14h-11.21v4.14h-6.42l-5.52,11.19h-2.95s0,2.76,0,2.76h1.59s-.4.81-.4.81v12.24h8.1v-4.14h22.41s0,4.14,0,4.14h8.1s0-12.24,0-12.24l-.4-.81h1.59v-2.76h-2.94s-5.53-11.19-5.53-11.19ZM56.39,42.95l4.88-9.9h12.38l4.88,9.9h-22.15Z"/>
        </g>
        <path class="cls-1" d="M70.93,113.22c-1.43,3.98-2.34,8.07-2.53,12.2v.06H24.65v-30.02s0-29.64,0-29.64h39.02v12.38h-25.34v35.02h32.6Z"/>
        <path class="cls-1" d="M123.26,65.82v12.25c-12.06,12.45-26.52,29.93-27.38,47.41h-15.1c.19-4.13,1.13-8.24,2.6-12.26,5.15-14.03,16.81-26.51,26.33-35.15h-33.66v-12.25h47.21Z"/>
      </g>
    </g>
  </g>
</svg>